<?xml version="1.0" encoding="utf-8"?>
<svg aria-hidden="true" focusable="false" data-prefix="fas" data-icon="table-tennis" class="svg-inline--fa fa-table-tennis fa-w-16" role="img" viewBox="0 0 512 512" xmlns="http://www.w3.org/2000/svg" xmlns:bx="https://boxy-svg.com">
  <rect width="512" height="512" style="paint-order: fill; stroke-width: 0px; stroke-linejoin: round; fill: rgb(255, 255, 255);" rx="91.135" ry="91.135"/>
  <path d="M 449.287 288.547 C 474.632 225.948 462 151.522 411.313 100.751 C 343.81 33.083 234.307 33.083 166.804 100.751 L 121.747 145.89 L 291.915 316.065 C 329.005 266.098 397.716 253.787 449.287 288.547 Z M 273.972 352.673 L 96.645 175.419 C 74.68 211.867 79.186 259.903 110.564 291.363 L 138.321 319.202 L 55.451 391.134 C 48.532 397.169 48.13 407.791 54.647 414.307 L 97.611 457.353 C 104.047 463.871 114.667 463.468 120.702 456.549 L 192.549 373.432 L 221.273 402.157 C 237.123 418.008 257.158 426.698 277.834 428.951 C 272.123 415.273 268.984 400.307 268.984 384.617 C 268.903 373.513 270.995 362.893 273.972 352.673 Z M 384.762 307.455 C 342.12 307.455 307.523 342.054 307.523 384.696 C 307.523 427.341 342.12 461.94 384.762 461.94 C 427.404 461.94 462 427.341 462 384.696 C 462 342.054 427.404 307.455 384.762 307.455 Z" style="fill: rgb(39, 39, 39);" bx:origin="0.564519 0.476968"/>
  <path style="fill: rgb(216, 216, 216); stroke: rgb(0, 0, 0);" d="M 908.183 151.258"/>
  <path style="fill: rgb(216, 216, 216); stroke: rgb(0, 0, 0);" d="M 461.37 63.921"/>
</svg>