<svg width="512" height="512" xmlns="http://www.w3.org/2000/svg" class="svg-inline--fa fa-table-tennis fa-w-16">
 <style>path { fill: #ffffff ; }</style>

 <g>
  <title>background</title>
  <rect fill="none" id="canvas_background" height="602" width="802" y="-1" x="-1"/>
 </g>
 <g>
  <title>Layer 1</title>
  <rect stroke="#000" rx="50" id="svg_2" height="512" width="512" y="0" x="1" stroke-width="1.5" fill="#272727"/>
  <path id="svg_1" d="m496.2,296.5c31.5,-77.8 15.8,-170.3 -47.2,-233.4c-83.9,-84.1 -220,-84.1 -303.9,0l-56,56.1l211.5,211.5c46.1,-62.1 131.5,-77.4 195.6,-34.2zm-217.9,79.7l-220.4,-220.3c-27.3,45.3 -21.7,105 17.3,144.1l34.5,34.6l-103,89.4c-8.6,7.5 -9.1,20.7 -1,28.8l53.4,53.5c8,8.1 21.2,7.6 28.7,-1l89.3,-103.3l35.7,35.7c19.7,19.7 44.6,30.5 70.3,33.3c-7.1,-17 -11,-35.6 -11,-55.1c-0.1,-13.8 2.5,-27 6.2,-39.7zm137.7,-56.2c-53,0 -96,43 -96,96s43,96 96,96s96,-43 96,-96s-43,-96 -96,-96z"/>
 </g>
</svg>