<?xml version="1.0" encoding="utf-8"?>
<svg aria-hidden="true" focusable="false" data-prefix="fas" data-icon="table-tennis" class="svg-inline--fa fa-table-tennis fa-w-16" role="img" viewBox="0 0 512 512" xmlns="http://www.w3.org/2000/svg" xmlns:bx="https://boxy-svg.com">
  <rect width="512" height="512" style="paint-order: fill; stroke-width: 0px; stroke-linejoin: round; fill: rgb(39, 39, 39);" rx="91.135" ry="91.135"/>
  <path d="M 425.83 284.597 C 448.099 229.595 437 164.201 392.465 119.592 C 333.154 60.136 236.94 60.136 177.629 119.592 L 138.04 159.253 L 287.557 308.776 C 320.145 264.873 380.518 254.056 425.83 284.597 Z M 271.791 340.941 L 115.984 185.198 C 96.685 217.223 100.644 259.429 128.214 287.071 L 152.603 311.532 L 79.79 374.734 C 73.71 380.037 73.357 389.37 79.083 395.095 L 116.833 432.917 C 122.488 438.644 131.819 438.29 137.122 432.211 L 200.25 359.181 L 225.488 384.419 C 239.414 398.347 257.018 405.982 275.184 407.962 C 270.167 395.944 267.408 382.794 267.408 369.008 C 267.337 359.252 269.175 349.921 271.791 340.941 Z M 369.136 301.21 C 331.669 301.21 301.27 331.611 301.27 369.078 C 301.27 406.547 331.669 436.947 369.136 436.947 C 406.603 436.947 437 406.547 437 369.078 C 437 331.611 406.603 301.21 369.136 301.21 Z" style="fill: rgb(255, 255, 255);" bx:origin="0.564519 0.476968"/>
  <path style="fill: rgb(216, 216, 216); stroke: rgb(0, 0, 0);" d="M 908.183 151.258"/>
  <path style="fill: rgb(216, 216, 216); stroke: rgb(0, 0, 0);" d="M 461.37 63.921"/>
</svg>